<svg version="1.1" id="Layer_1" xmlns="http://www.w3.org/2000/svg" xmlns:xlink="http://www.w3.org/1999/xlink" x="0px" y="0px"
	 width="100%" viewBox="0 0 1024 1024" enable-background="new 0 0 1024 1024" xml:space="preserve">
<path fill="#000000" opacity="1.000000" stroke="none" 
	d="
M599.024658,507.940674 
	C605.687378,518.165039 600.471436,531.659058 588.714539,534.241577 
	C579.604492,536.242798 570.414612,537.917786 561.024963,536.387573 
	C553.618469,535.180603 549.681519,541.570496 543.065674,543.957520 
	C540.036316,541.274841 536.140991,539.265381 531.093201,541.536560 
	C528.188904,542.843262 526.931641,544.026611 527.798401,547.485901 
	C529.209412,553.117126 530.025085,558.901550 530.983765,564.639343 
	C531.212524,566.008423 531.709656,567.513184 530.434082,569.213806 
	C527.470093,562.674011 527.313660,555.768372 526.001221,549.197937 
	C525.105469,544.713257 523.074036,543.763184 519.164490,544.376831 
	C516.868103,544.737305 514.524780,545.124878 512.220032,545.037598 
	C507.387970,544.854797 505.583740,542.140198 507.312927,537.662720 
	C508.267303,535.191589 509.439240,532.719788 510.974152,530.578796 
	C512.932617,527.846985 512.465698,525.713257 510.437195,523.334106 
	C514.289368,525.517822 515.554932,522.403442 517.141357,520.180847 
	C529.041931,503.508636 540.887207,486.798370 553.380798,470.557098 
	C572.141663,446.168640 594.345581,426.002258 622.610352,413.016876 
	C663.099792,394.415283 705.671509,382.591522 749.153564,373.630066 
	C753.661499,372.701050 757.700256,373.548340 761.696167,375.504913 
	C767.412964,378.304230 772.607056,381.897491 777.605286,385.798798 
	C779.522278,387.295074 781.451233,388.680634 783.792053,386.555328 
	C792.235168,378.889648 799.532532,370.280945 805.148987,360.322083 
	C806.199890,358.458466 806.490540,356.257904 804.481201,354.905457 
	C795.559387,348.900513 786.314392,343.646759 774.935547,344.949677 
	C765.973572,345.975861 757.416443,348.722961 748.726013,351.016296 
	C706.599915,362.132782 665.948914,377.271576 625.989380,394.522552 
	C598.455994,406.409027 574.606873,422.644806 555.260193,446.003418 
	C536.257629,468.946594 518.769897,493.162842 498.202606,514.808655 
	C497.936676,515.088501 498.033813,515.713257 497.955261,516.217346 
	C502.037415,518.510315 507.014526,519.035950 510.020966,523.013123 
	C500.446838,517.302246 491.454559,517.512268 482.284332,524.482788 
	C479.031342,526.955505 474.244324,527.410095 469.804321,528.904968 
	C470.897034,531.456055 472.199860,533.914368 473.023804,536.523926 
	C476.291595,546.873535 472.872498,556.087402 463.701141,562.092407 
	C456.157593,567.031616 448.115662,571.064392 440.075287,575.103271 
	C438.015747,576.137817 436.024200,577.307739 433.402863,578.743286 
	C437.686462,583.683289 434.517975,587.488037 431.970367,591.357727 
	C425.543243,601.120056 418.474365,610.476501 410.199280,618.660767 
	C400.159302,628.590576 386.627014,631.216736 373.364807,633.976440 
	C362.103485,636.319763 350.756805,638.069214 339.264008,638.780823 
	C332.558105,639.195984 326.362640,637.180176 320.495026,634.339661 
	C314.963959,631.662048 309.405731,631.254822 303.520081,632.424377 
	C299.273254,633.268372 294.942474,633.713928 290.722137,634.662170 
	C281.195435,636.802734 272.012268,636.260681 262.772217,632.812012 
	C244.704605,626.068604 227.783493,617.501526 212.503082,605.516785 
	C196.339554,592.839478 188.837448,575.456665 183.756088,556.484558 
	C181.665970,548.680725 180.593185,540.813049 182.824966,532.835938 
	C183.445114,530.619202 184.004318,528.287903 187.105194,527.750427 
	C188.725922,530.103027 188.621857,532.862244 189.091919,535.363037 
	C190.399292,542.318787 192.902130,548.813965 196.095551,555.067566 
	C196.957703,556.755920 197.901825,559.434448 200.308304,558.196960 
	C202.627899,557.004150 204.694443,554.505981 203.275833,551.568604 
	C198.483688,541.645813 197.153152,530.887268 195.135376,520.267883 
	C194.448624,516.653564 195.047623,513.914429 197.871674,511.332458 
	C202.396774,507.195251 207.128128,503.439514 212.428894,500.199097 
	C213.565521,502.362030 212.115967,503.159302 211.396942,504.120819 
	C197.698318,522.439880 198.694641,545.599365 214.815353,562.001892 
	C235.010178,582.549744 259.856476,594.816711 287.933624,600.713501 
	C304.107147,604.110168 320.395172,603.024780 336.707428,602.016479 
	C367.176483,600.133179 395.979248,591.663208 423.955414,580.057129 
	C436.575836,574.821472 448.496582,568.086182 460.491699,561.546692 
	C468.096283,557.400879 471.530945,550.815369 472.334015,542.484009 
	C473.053558,535.019287 467.715271,528.926758 460.276031,529.101379 
	C438.409607,529.614624 417.717590,524.135376 397.469299,516.667969 
	C369.070679,506.194580 341.938019,493.200317 317.412720,475.215424 
	C312.549744,471.649261 307.946533,467.783417 305.026794,462.362915 
	C300.689026,454.309814 301.932220,448.332001 309.792358,443.688965 
	C327.342133,433.322418 341.102844,418.364441 356.572205,405.511505 
	C407.170227,363.471375 463.996429,333.597504 527.166443,315.392670 
	C555.027771,307.363312 583.094482,300.389709 611.618347,295.220581 
	C631.939575,291.537933 652.418335,289.057007 672.949402,286.931458 
	C675.243103,286.693970 677.523010,286.060394 679.735657,285.373322 
	C682.214294,284.603729 684.854431,284.104614 687.061340,285.306427 
	C693.650818,288.894745 701.282288,288.725006 708.050171,291.509827 
	C711.254395,292.828247 712.925171,291.717133 714.151611,288.662811 
	C716.136353,283.719910 718.407471,278.891479 720.580383,274.024902 
	C721.121887,272.812256 721.634155,271.560852 722.365906,270.464874 
	C723.512817,268.747101 725.009094,267.062622 727.277466,268.213562 
	C729.454407,269.318085 729.383789,271.375092 728.480530,273.429413 
	C726.201355,278.613037 723.916626,283.794342 721.670837,288.992401 
	C721.023804,290.490021 719.919250,291.859344 720.189270,293.761780 
	C721.683594,295.451324 723.921265,295.760193 725.929626,296.364044 
	C756.191162,305.462372 783.847595,319.943756 810.356812,336.873993 
	C815.020081,339.852234 815.735657,344.399902 815.884521,349.002747 
	C816.024780,353.339569 818.144287,356.030151 821.086975,358.699463 
	C827.378662,364.406799 833.561584,370.238098 839.671997,376.139801 
	C843.348083,379.690247 842.995544,380.665802 838.719849,383.662598 
	C828.541504,390.796417 817.207825,395.648132 805.849060,400.397949 
	C798.962830,403.277527 792.509338,406.208679 789.795227,414.017670 
	C789.068298,416.109222 787.128723,417.779358 785.595764,419.845154 
	C787.900696,423.957214 792.282104,426.741699 793.767395,432.373016 
	C788.967041,429.585815 787.524170,424.714661 783.644714,421.772552 
	C770.150208,430.042938 755.718811,436.468475 741.415222,443.135529 
	C720.129150,453.057159 698.772705,462.828217 677.423218,472.613220 
	C669.751160,476.129547 669.500000,476.172974 673.266541,483.752075 
	C683.299622,503.941345 679.313110,525.224609 678.834167,546.267822 
	C676.559143,544.268311 676.971008,541.760071 677.145874,539.381958 
	C678.064087,526.892761 677.945618,514.449768 676.596191,501.971954 
	C675.653320,493.253876 671.694885,485.858246 667.681824,477.608429 
	C644.878845,487.743286 622.281006,497.786987 599.115356,507.655396 
	C597.172302,506.161011 595.418274,505.640869 593.640076,505.211365 
	C584.937195,503.109192 576.216675,501.078339 567.527100,498.922668 
	C561.544189,497.438446 556.388000,498.768951 551.896118,502.967163 
	C550.324951,504.435638 548.632324,505.776886 546.962708,507.136475 
	C545.516479,508.314117 543.983398,509.534241 544.360657,511.617920 
	C544.797668,514.031677 546.913147,514.420227 548.908752,514.763672 
	C563.134399,517.211670 577.290894,517.064941 591.352417,513.586243 
	C594.682617,512.762390 597.645020,511.422913 599.024658,507.940674 
M476.165222,460.904175 
	C473.223206,466.339783 476.287384,471.377045 477.510040,476.378357 
	C480.441498,488.369171 495.322876,492.583893 503.673431,483.746582 
	C513.272766,473.587708 522.456665,463.035370 531.778748,452.616089 
	C534.295532,449.803101 536.686035,447.546173 541.131042,448.429077 
	C543.822937,448.963806 546.737610,447.400055 548.830078,445.448853 
	C552.721069,441.820435 556.383057,437.944977 560.109802,434.142456 
	C563.101501,431.089996 561.980957,428.621490 558.630127,427.099731 
	C555.312683,425.593048 551.779114,424.545746 548.306152,423.400818 
	C538.205322,420.070953 527.964539,417.116211 518.033691,413.343201 
	C513.784180,411.728638 509.841217,409.813477 505.167877,410.264709 
	C502.976715,410.476288 500.876068,409.866974 498.827271,409.116608 
	C494.933960,407.690735 491.555054,409.005737 489.819214,412.324249 
	C487.856506,416.076416 491.304626,418.110382 493.933105,419.711487 
	C497.065063,421.619232 500.272980,423.268555 502.689545,426.186005 
	C504.741516,428.663177 505.102692,430.767456 502.520416,433.061432 
	C499.659851,435.602631 496.787109,438.148712 494.128387,440.894745 
	C488.066010,447.156219 479.631378,451.262665 476.165222,460.904175 
M423.726379,378.271057 
	C413.412201,385.043213 403.668793,392.595673 393.810669,399.997406 
	C391.253967,401.917053 390.922272,404.237976 391.180481,406.952698 
	C391.437927,409.660126 393.717773,410.019623 395.713470,410.920685 
	C399.601013,412.675873 403.347656,412.643738 407.301361,411.198090 
	C410.407318,410.062500 413.497467,410.363739 416.421936,412.135040 
	C424.561066,417.064789 433.424469,418.072021 442.346710,415.454865 
	C451.128632,412.878845 459.618469,409.326965 467.163727,403.904785 
	C471.346649,400.898834 471.555634,399.358734 468.195801,395.547638 
	C462.032318,388.556305 455.169769,382.539520 447.093964,377.662689 
	C434.752930,370.210114 436.803802,369.652100 423.726379,378.271057 
M551.350464,394.132324 
	C544.908081,392.314728 539.238647,392.853973 533.621643,397.398804 
	C530.439697,399.973419 525.680359,400.692444 521.194153,400.457916 
	C520.721069,397.983582 523.817322,396.275360 521.432678,394.438293 
	C519.364441,392.844910 517.049377,393.152344 514.763794,393.917816 
	C513.980835,394.180023 513.188232,394.505646 512.507019,394.961975 
	C510.542786,396.277863 507.209015,396.516052 507.467133,399.746521 
	C507.688538,402.516968 510.518677,402.989868 512.627441,403.813171 
	C528.125671,409.864136 543.721375,415.626434 559.890442,419.692169 
	C568.249695,421.794098 575.220764,417.859161 577.550842,409.596405 
	C578.994263,404.477570 577.131042,400.880463 572.084351,398.974457 
	C565.653931,396.545807 558.809082,395.899353 551.350464,394.132324 
M380.641571,619.315308 
	C383.008301,617.541870 384.186584,614.964600 383.431763,612.296021 
	C381.851532,606.709167 376.400970,611.019958 373.355225,609.090149 
	C373.470734,607.973145 374.131409,607.761902 374.756805,607.617981 
	C379.955475,606.421509 385.096039,605.025513 390.033752,602.986267 
	C391.861115,602.231628 394.224640,601.436157 393.355621,598.854675 
	C392.574646,596.534668 390.383514,597.329102 388.602844,597.717041 
	C383.235382,598.886536 377.882568,600.126709 372.502197,601.233093 
	C350.919952,605.671082 329.160370,608.423584 307.072601,608.079895 
	C304.996887,608.047607 302.092102,607.631104 302.022766,610.685974 
	C301.954803,613.679871 304.881775,612.870178 306.663849,612.974243 
	C318.811615,613.683655 330.933929,612.860779 343.056427,612.178772 
	C344.504517,612.097290 347.079102,611.528259 347.026733,612.951538 
	C346.872864,617.133484 349.969635,616.235596 352.031982,616.686707 
	C354.067413,617.132019 355.771606,617.845032 357.268036,619.313965 
	C362.473633,624.423889 366.016357,624.947327 372.869171,622.023376 
	C375.154663,621.048218 377.594452,620.434814 380.641571,619.315308 
M336.180084,625.213989 
	C337.057251,626.652039 337.402252,628.736938 340.177795,628.274475 
	C340.209839,624.669006 339.401581,621.371033 337.559540,617.919128 
	C334.845612,619.882935 334.983612,622.125610 336.180084,625.213989 
z"/>
<path fill="#000000" opacity="1.000000" stroke="none" 
	d="
M411.770081,692.724976 
	C420.389923,690.995117 424.288116,686.866150 425.217926,677.627625 
	C426.965149,660.267578 434.220947,644.350159 445.165436,630.879395 
	C455.899078,617.668152 469.167175,607.332581 486.877380,604.532410 
	C503.539246,601.898071 516.663269,609.291748 523.387085,625.569519 
	C524.966187,629.392334 525.879883,633.494141 527.032593,637.487000 
	C527.606018,639.473145 527.410034,642.503235 530.720825,641.282776 
	C533.248474,640.351013 536.877380,640.156677 536.374329,635.664429 
	C534.856384,622.109802 533.501404,608.536621 532.135864,594.965393 
	C531.771240,591.341431 531.420410,587.696899 532.583069,584.007874 
	C536.301575,601.468262 536.237854,619.464966 539.341064,637.228516 
	C544.602478,637.059082 547.953796,633.577026 552.094299,632.083862 
	C555.682251,630.790039 559.043396,628.876526 562.536255,627.306824 
	C565.147766,626.133118 567.767151,625.193542 570.665222,626.693970 
	C571.467529,627.109375 572.832031,627.235657 573.582214,626.832092 
	C581.266418,622.698792 590.160278,624.241577 598.234436,620.937561 
	C623.357422,610.656921 648.980042,601.505188 673.481628,589.817261 
	C701.467346,576.467285 728.744995,561.667236 756.218506,547.275574 
	C765.308533,542.513916 771.174744,536.899780 774.755127,527.006531 
	C780.660583,510.688477 791.705994,497.718323 806.241211,487.975586 
	C812.206055,483.977478 818.924255,482.006165 826.024292,481.774078 
	C838.059387,481.380646 847.209595,487.838196 852.602905,500.097198 
	C855.410950,506.480011 855.792725,506.504700 860.936951,501.605957 
	C865.427002,497.330261 868.962280,492.337585 872.592468,486.050262 
	C875.050903,494.923523 874.588684,502.873291 873.687683,510.863007 
	C872.611877,520.403381 867.169739,527.033813 859.541321,532.190186 
	C858.326050,533.011658 856.781494,534.126160 855.526733,533.973755 
	C850.105957,533.315125 849.037231,536.695374 848.517700,540.827087 
	C847.155518,551.661377 843.145020,561.806213 839.637756,571.986328 
	C836.796265,580.233704 831.383179,587.017090 822.616394,590.532349 
	C814.564148,593.761169 806.593872,597.320007 798.020264,598.686768 
	C789.657837,600.019714 781.222412,599.490906 774.230713,593.915955 
	C764.627869,586.258911 753.968567,582.712341 741.700073,584.080750 
	C739.859131,584.286133 738.124451,584.628845 736.379272,585.259766 
	C684.062256,604.174255 632.480042,624.990479 580.709961,645.321777 
	C562.883667,652.322571 544.956360,659.066101 527.464294,666.892090 
	C526.113708,667.496399 524.620728,667.848755 523.157288,668.121582 
	C519.523193,668.799194 517.275024,670.755920 516.229980,674.407715 
	C513.234985,684.873169 507.043732,694.033020 503.143402,703.911804 
	C497.025818,719.406494 483.431793,721.216797 471.149811,726.016357 
	C455.672302,732.064758 442.736450,724.261536 431.275208,715.993591 
	C422.405914,709.595581 414.974945,708.498901 404.995178,712.043030 
	C391.765137,716.741516 377.684967,717.957275 363.657562,718.171631 
	C349.506714,718.387939 335.345123,718.802795 321.205017,717.389160 
	C314.981964,716.766968 309.080444,715.025940 303.349640,712.845520 
	C272.647461,701.164368 242.388992,688.502197 214.642838,670.610413 
	C202.304199,662.653931 190.405594,654.076721 179.768600,643.911072 
	C174.833817,639.195007 172.521118,633.017822 170.844574,626.142944 
	C173.606155,626.165771 174.098022,628.372375 175.493362,629.316528 
	C178.128525,631.099609 180.729752,630.765320 181.692734,627.982910 
	C183.059937,624.032532 185.138428,619.415039 181.948151,615.641541 
	C173.705109,605.891479 175.052551,593.886719 172.950302,582.615967 
	C175.233643,582.139160 175.202454,583.636536 175.481125,584.614563 
	C177.621582,592.126587 182.385406,598.731689 183.120239,606.725525 
	C183.373947,609.485352 186.272675,609.396484 187.665802,610.945129 
	C207.332779,632.807983 233.609375,644.129150 259.637482,655.726318 
	C271.020142,660.797974 282.525116,665.895630 295.361725,666.243469 
	C297.605988,666.304199 298.852783,667.720703 300.015625,669.508850 
	C306.571838,679.591125 314.419556,688.672119 322.132599,697.860352 
	C324.309021,700.453003 326.784851,702.012451 330.259003,701.941223 
	C357.580383,701.380859 384.842072,700.316711 411.770081,692.724976 
M473.880219,636.215393 
	C478.023560,635.206177 478.334686,638.029297 478.265442,640.840820 
	C478.125366,646.524292 477.777588,652.202576 477.453339,659.228699 
	C486.319153,651.527771 483.591797,640.035950 490.103546,632.622253 
	C484.035370,631.670593 478.470795,632.230103 473.880219,636.215393 
M455.752655,666.971924 
	C458.499878,667.559814 461.223022,668.390808 464.001221,668.666138 
	C466.687592,668.932312 468.471985,667.811707 466.611572,664.852966 
	C463.725586,660.263245 460.648773,655.793579 457.458221,650.979309 
	C453.903107,655.771057 451.547241,660.690857 450.212616,666.190308 
	C452.122894,666.440796 453.581512,666.632019 455.752655,666.971924 
M482.660767,684.928223 
	C483.793457,687.141846 484.898712,689.370117 486.067932,691.564270 
	C486.923706,693.170227 488.204926,694.110840 490.128632,693.669739 
	C491.849945,693.274963 492.368347,691.869324 492.756256,690.379944 
	C494.212189,684.790100 491.025635,681.223877 487.241455,678.007935 
	C485.415802,676.456360 483.436157,674.023682 480.803619,676.148010 
	C478.566833,677.953064 480.588531,680.089905 481.271027,682.017029 
	C481.546143,682.793884 481.979492,683.514771 482.660767,684.928223 
M305.226166,698.517944 
	C303.527283,698.892090 301.562714,698.509033 299.925659,700.632996 
	C305.422638,703.580627 310.721405,705.977234 317.358795,704.313660 
	C315.729095,697.309998 310.614014,698.340393 305.226166,698.517944 
M450.547028,693.738831 
	C450.991913,694.799561 451.309937,695.939453 451.911346,696.902405 
	C452.817993,698.354126 453.348969,700.786865 455.612701,700.201416 
	C458.578125,699.434631 459.734192,696.631531 460.872284,694.055420 
	C461.719116,692.138550 460.467072,690.981201 459.230194,689.830811 
	C458.006561,688.692749 456.753387,688.273682 455.288330,689.431824 
	C453.689331,690.696045 452.055908,691.916687 450.547028,693.738831 
M476.210754,665.339172 
	C473.724670,665.291504 473.150757,666.959717 473.124756,668.945740 
	C473.097748,671.008606 473.856873,672.493164 476.526672,672.357544 
	C477.785034,670.171875 478.495911,667.975708 476.210754,665.339172 
M505.542938,652.776978 
	C504.998657,651.307434 505.293182,649.475586 503.567291,648.259338 
	C502.905670,649.710754 502.272980,651.023193 501.706390,652.363647 
	C501.195648,653.572021 501.325623,654.740784 502.603241,655.320129 
	C504.378296,656.125061 505.478607,655.518799 505.542938,652.776978 
z"/>
<path fill="#000000" opacity="1.000000" stroke="none" 
	d="
M846.387878,384.232086 
	C844.805786,379.981720 847.180847,381.986389 848.488037,382.539764 
	C858.341553,386.711212 864.345886,393.674561 864.972717,404.775879 
	C865.376343,411.925934 865.676758,419.088470 865.103394,426.205872 
	C864.400879,434.926758 861.469971,436.553802 853.342773,433.651978 
	C843.326172,430.075592 833.273560,426.600189 823.241760,423.066315 
	C816.551880,420.709686 815.323120,416.493408 820.623962,411.734711 
	C826.918396,406.084076 833.893677,401.197723 840.475403,395.858856 
	C844.031189,392.974518 847.091553,389.683441 846.387878,384.232086 
z"/>
<path fill="#000000" opacity="1.000000" stroke="none" 
	d="
M384.698578,670.444214 
	C387.222015,676.100647 389.594086,681.420593 391.872131,686.780518 
	C392.735474,688.811890 393.019836,690.825500 389.965607,691.204834 
	C374.100037,693.175903 358.226562,695.048523 342.185059,694.043762 
	C341.917023,694.026855 341.667816,693.708984 341.356964,693.495239 
	C341.326996,690.777222 346.526855,691.389282 345.078369,688.022949 
	C344.173706,685.920471 342.617950,684.085632 341.272400,682.188843 
	C339.827759,680.152405 338.271210,678.195862 336.791779,676.183594 
	C333.776520,672.082458 331.180237,667.479614 324.928864,667.621643 
	C326.114105,664.804993 327.963074,665.024841 329.503967,664.967712 
	C343.488739,664.449158 357.365234,662.838562 371.225616,661.017151 
	C378.328308,660.083862 381.843842,664.516052 384.698578,670.444214 
z"/>
<path fill="#000000" opacity="1.000000" stroke="none" 
	d="
M308.035522,406.805695 
	C308.385223,406.136993 308.530823,405.817444 308.767395,405.594391 
	C316.061249,398.717621 339.688599,398.939514 347.478027,406.257355 
	C344.540161,410.251495 340.362976,412.970886 336.705444,416.199707 
	C331.467590,420.823547 326.064667,425.260712 320.838409,429.897278 
	C318.071014,432.352509 316.007568,432.514587 313.496307,429.336487 
	C308.270599,422.723236 307.260925,415.207825 308.035522,406.805695 
z"/>
<path fill="#000000" opacity="1.000000" stroke="none" 
	d="
M650.257935,524.505127 
	C646.905273,525.812744 643.912109,526.702759 640.708496,525.416626 
	C636.439636,523.702881 635.388428,520.753601 638.029907,515.573975 
	C637.992981,522.204346 641.608704,521.278503 645.132996,519.920593 
	C654.040771,516.488220 663.219482,513.555542 670.724915,506.240814 
	C671.564331,511.839600 669.242371,515.123718 665.418274,517.223083 
	C660.626343,519.853882 655.568665,522.000549 650.257935,524.505127 
z"/>
<path fill="#000000" opacity="1.000000" stroke="none" 
	d="
M779.269714,465.394073 
	C773.958313,468.177246 769.179993,471.382141 763.213745,471.288940 
	C759.200562,471.226257 758.374146,470.557709 757.085144,466.317200 
	C768.840393,465.100006 778.587463,459.632996 787.211975,451.767456 
	C789.339539,457.328949 787.999573,459.614075 779.269714,465.394073 
z"/>
<path fill="#000000" opacity="1.000000" stroke="none" 
	d="
M656.127075,508.206940 
	C653.240295,509.566406 650.713013,510.814636 648.150391,511.985596 
	C647.080994,512.474304 645.896729,512.785400 644.861389,511.924164 
	C643.729065,510.982269 644.275085,509.826324 644.620911,508.721405 
	C646.053284,504.143890 657.644653,497.927185 662.020447,499.388092 
	C663.203918,499.783264 663.989624,500.572296 664.410889,501.734894 
	C664.925781,503.155975 664.089783,503.907837 663.002625,504.506409 
	C660.831116,505.701996 658.649719,506.879517 656.127075,508.206940 
z"/>
<path fill="#000000" opacity="1.000000" stroke="none" 
	d="
M774.646545,446.336548 
	C777.181458,445.801971 779.702637,445.219055 780.587280,447.854187 
	C781.516174,450.621155 778.731079,451.441833 776.981873,452.422577 
	C773.663269,454.283234 770.186035,455.862030 766.765564,457.539246 
	C765.715637,458.054077 764.548950,458.620239 763.554688,457.612823 
	C762.426819,456.469971 762.939392,455.115051 763.552734,453.923279 
	C765.799500,449.557709 770.011780,447.967834 774.646545,446.336548 
z"/>
<path fill="#000000" opacity="1.000000" stroke="none" 
	d="
M682.351562,573.368042 
	C682.609192,575.281921 683.430420,576.982727 680.723145,578.258606 
	C680.824524,570.366638 676.314819,563.438110 677.055420,555.709412 
	C677.497192,555.625244 677.938965,555.541077 678.380737,555.456909 
	C679.689209,561.303040 680.997681,567.149109 682.351562,573.368042 
z"/>
<path fill="#000000" opacity="1.000000" stroke="none" 
	d="
M582.307251,618.959717 
	C585.473999,617.628601 588.334900,616.456787 592.062073,614.930176 
	C589.403320,618.621399 586.904968,620.840332 583.486267,621.957153 
	C582.479492,622.286072 581.476929,622.655579 580.875732,621.544556 
	C580.257629,620.402222 581.200195,619.736572 582.307251,618.959717 
z"/>
</svg>