<svg version="1.1" id="Layer_1" xmlns="http://www.w3.org/2000/svg" xmlns:xlink="http://www.w3.org/1999/xlink" x="0px" y="0px"
	 width="100%" viewBox="0 0 1024 1024" enable-background="new 0 0 1024 1024" xml:space="preserve">
<path fill="#000000" opacity="1.000000" stroke="none" 
	d="
M433.945557,598.654358 
	C439.597443,597.833984 441.495422,601.408997 442.932831,605.304077 
	C447.825928,618.563171 447.872375,616.762634 436.264984,618.841553 
	C427.126190,620.478333 417.795593,620.585083 408.709137,622.965881 
	C402.670593,624.548157 397.267731,620.186829 390.249695,618.878662 
	C400.502838,624.077881 410.282532,625.403625 420.398071,624.569092 
	C431.175812,623.679810 441.856628,622.050842 452.482880,620.006470 
	C457.274200,619.084656 459.839539,616.834534 460.984680,611.774719 
	C464.681122,595.442139 471.100372,580.444031 483.983582,568.928223 
	C488.918701,564.516907 494.285034,561.100952 500.733978,559.418152 
	C510.877380,556.771301 519.563965,561.331482 522.892883,571.229614 
	C523.633301,573.430969 524.059570,575.736145 524.703918,577.972351 
	C525.195435,579.677917 526.014099,581.110596 528.175842,580.761963 
	C530.532043,580.382019 531.179138,578.680054 530.785217,576.699524 
	C529.607178,570.777039 530.038025,564.740662 529.329102,558.791321 
	C527.941284,547.143982 526.556335,535.496338 525.781738,523.774902 
	C529.146240,542.032104 532.862000,560.238159 532.117126,580.308105 
	C540.634766,575.227661 548.697144,572.315552 555.056946,565.866272 
	C562.976440,557.835327 573.798523,553.979187 583.333313,548.275330 
	C591.190186,543.575134 599.305664,539.306519 607.320679,534.872253 
	C609.302307,533.775940 611.192749,532.563721 610.678101,529.926208 
	C608.172180,517.084778 612.492432,504.437958 611.687317,491.637451 
	C611.229919,484.364899 609.183228,477.732056 605.091553,471.119507 
	C597.456177,475.289856 590.195557,479.287659 582.903503,483.227203 
	C577.924011,485.917358 572.974854,488.682495 567.866394,491.107239 
	C565.202576,492.371582 564.067383,493.501099 565.112610,496.733459 
	C567.688782,504.699646 565.692200,508.255829 557.697754,510.409729 
	C545.664978,513.651672 533.534729,516.506714 521.160889,518.130920 
	C514.033752,519.066528 512.228455,516.854248 515.402832,510.386078 
	C527.408569,485.922913 540.891724,462.410431 561.083984,443.537994 
	C567.324158,437.705627 574.523254,433.100708 581.994385,429.078217 
	C601.207764,418.733765 620.652710,408.843536 641.195801,401.309814 
	C650.901428,397.750458 660.217712,396.501007 668.634705,404.525604 
	C671.636658,407.387573 674.781616,406.945129 677.797913,403.889343 
	C681.577942,400.059845 685.002319,396.109161 686.945740,390.960236 
	C688.468445,386.925659 687.331726,384.158142 683.690918,382.234528 
	C678.499084,379.491425 673.002197,378.661499 667.252441,379.932587 
	C654.663757,382.715424 642.756714,387.443939 631.166077,392.960388 
	C613.419312,401.406708 595.728455,409.971313 578.379272,419.222687 
	C560.539734,428.735413 547.407959,443.127808 536.193359,459.567810 
	C528.405151,470.984955 520.573120,482.373657 512.627563,493.681580 
	C504.402649,505.387146 493.602234,510.350159 479.039520,507.426727 
	C451.790863,501.956482 426.756165,492.005493 405.662201,473.424744 
	C402.019318,470.215912 398.859070,466.586884 396.849762,462.058838 
	C395.123810,458.169495 395.975677,455.249512 399.861816,453.412750 
	C401.871979,452.462677 403.434326,451.000854 404.983765,449.481842 
	C407.728210,446.791412 408.284912,443.871155 406.179016,440.495605 
	C403.612549,436.381836 401.697479,431.949707 400.151276,427.361115 
	C398.991547,423.919434 399.893585,421.106873 402.948761,419.118073 
	C407.966400,415.851746 418.490143,418.282806 422.199188,423.634430 
	C419.736328,426.520782 416.944214,424.389282 414.417786,423.962158 
	C411.745483,423.510345 409.332764,421.276672 405.744629,423.222321 
	C408.549561,427.270294 411.066467,431.171387 416.573853,431.399841 
	C418.021057,434.368530 415.978119,436.251953 415.297729,438.906982 
	C417.797058,436.669403 420.555328,434.659668 422.755463,432.158844 
	C443.407684,408.684235 468.620148,391.216583 496.106323,376.913452 
	C524.556458,362.108643 554.241943,350.431702 585.616577,343.277252 
	C597.139465,340.649689 608.698792,340.699097 620.343872,341.725098 
	C621.504089,341.827332 622.673767,341.878937 623.838196,341.866577 
	C630.188354,341.799164 635.197144,339.964508 636.617188,332.783691 
	C637.061707,330.535950 638.176331,328.391876 639.177429,326.292511 
	C639.934509,324.705017 640.652710,322.531281 643.067749,323.341766 
	C645.432434,324.135406 645.636597,326.363892 645.145020,328.366852 
	C644.234192,332.078003 643.142273,335.757080 641.898071,339.371094 
	C640.087219,344.631104 640.700806,346.764191 646.067078,348.367828 
	C659.380066,352.346191 671.572632,358.925751 684.279846,364.302521 
	C689.264343,366.411560 693.271057,369.986115 697.179260,373.620300 
	C699.229553,375.526764 700.091431,378.056885 700.156677,380.827148 
	C700.261597,385.274994 702.382751,388.716156 705.335083,391.847015 
	C709.558655,396.326080 713.590332,400.987518 717.856812,405.424103 
	C721.854065,409.580719 721.601135,414.898285 721.999634,419.963959 
	C722.350830,424.427338 722.073120,428.940155 722.073120,433.752716 
	C719.911926,435.583374 717.724548,434.463318 715.608887,432.995056 
	C710.711243,429.596161 705.559631,428.240295 699.552734,429.829346 
	C695.172302,430.988129 693.091248,428.552185 693.564392,424.053009 
	C693.956116,420.328400 696.348328,418.135345 698.949097,416.007751 
	C702.557434,413.055878 706.174255,410.113403 709.833130,407.224701 
	C711.657471,405.784424 711.749573,404.219879 710.380066,402.501343 
	C709.142639,400.948608 707.644226,399.942413 705.645264,401.194214 
	C697.182007,406.494171 688.728821,411.810516 680.290527,417.150116 
	C677.342102,419.015869 677.271790,422.769775 674.694092,425.187561 
	C658.225830,440.634033 638.409973,451.037842 619.387634,462.649384 
	C615.701599,464.899445 610.760986,466.387604 608.709167,469.670868 
	C606.499084,473.207550 611.175720,477.071655 612.167786,481.036499 
	C614.680786,491.080200 613.836426,501.234039 612.890991,511.293213 
	C612.279907,517.795593 612.606079,524.208984 612.312500,531.075256 
	C616.787781,530.302246 619.934753,527.780334 623.373169,526.005981 
	C628.699585,523.257263 634.001221,520.425049 639.096802,517.277649 
	C642.251526,515.329102 644.540466,514.880371 645.822205,519.092896 
	C651.214050,518.172424 655.421265,514.932739 660.444702,513.906799 
	C662.347656,513.518127 662.510254,511.084442 663.105652,509.365784 
	C666.771301,498.785095 670.920227,488.419037 678.349609,479.814911 
	C683.808838,473.492493 690.515442,469.030334 699.061707,468.257324 
	C704.278870,467.785400 708.452454,470.078430 711.414673,474.386475 
	C712.633728,476.159424 713.623718,478.089874 715.056274,480.523590 
	C722.729248,474.242981 728.301331,467.280518 727.403625,456.660034 
	C729.921265,472.557465 728.091003,487.213440 716.416687,499.222992 
	C712.988281,502.749878 711.753845,507.228394 710.442139,511.691559 
	C708.019165,519.935425 704.210388,527.477844 699.141602,534.384277 
	C693.958008,541.446960 686.480164,545.006287 678.442139,547.618591 
	C664.768860,552.062439 652.090698,558.560608 639.394104,565.268005 
	C617.811829,576.669556 597.063171,589.817688 573.337097,596.940430 
	C562.333069,600.243896 552.655945,606.858521 542.477295,612.166992 
	C539.977661,613.470581 537.566223,615.180725 536.014404,617.591431 
	C529.102112,628.329651 518.518066,633.200134 506.661774,635.696838 
	C499.809418,637.139832 493.144775,638.866455 486.502838,641.176880 
	C477.670532,644.249207 468.159668,644.307922 458.877289,645.041260 
	C441.718750,646.396667 424.598602,644.977051 407.607544,642.906494 
	C400.113251,641.993225 392.676056,639.409241 385.582611,636.637573 
	C365.383636,628.745239 345.638824,619.928162 330.253082,603.839294 
	C325.751678,599.132202 322.954163,593.631897 321.830383,587.184998 
	C320.773956,581.124268 319.313751,575.133972 318.259369,569.072937 
	C317.862518,566.791626 317.204285,564.238342 319.547546,561.606262 
	C321.039703,567.201050 320.441132,572.722534 323.339264,577.276062 
	C329.227234,575.627441 330.003326,574.367920 328.071350,569.328735 
	C324.620880,560.328613 320.354889,551.531311 321.604584,541.446411 
	C321.723877,540.483826 321.848755,539.521973 322.829742,538.419312 
	C323.177612,540.022583 323.691620,541.609802 323.847504,543.231567 
	C325.319122,558.539734 333.217560,570.014282 345.262146,578.916931 
	C357.127014,587.686707 369.930206,594.794434 384.120605,599.027283 
	C399.027588,603.473999 414.072113,602.199707 429.081421,599.319397 
	C430.543152,599.038879 432.027130,598.874512 433.945557,598.654358 
M697.596619,488.473083 
	C694.702576,486.170532 691.660339,486.390228 689.188660,487.478668 
	C691.812744,492.947266 688.647705,498.190674 688.919861,504.427704 
	C690.605408,498.194031 691.996765,493.048340 693.453735,487.660034 
	C695.221924,488.172668 696.622192,488.578613 698.468811,489.510559 
	C703.623291,495.710541 703.513184,496.655457 697.537231,501.933777 
	C696.461792,502.883698 694.747314,503.422394 694.322998,505.209961 
	C697.421509,505.688171 699.812134,502.961517 702.885315,504.239838 
	C703.265564,509.729156 700.352112,514.181824 698.297974,519.032471 
	C694.543640,518.564209 692.882812,514.975342 688.754395,512.598511 
	C691.781738,516.885559 691.829285,521.345703 695.378967,524.276306 
	C697.554810,523.019470 698.238586,520.974792 699.512512,518.542236 
	C704.468201,510.793182 704.588989,502.433899 702.465027,493.865295 
	C701.896606,491.572144 700.486389,489.707489 697.596619,488.473083 
M486.480896,623.532043 
	C490.545013,625.860718 494.087250,624.622925 497.431885,621.994446 
	C493.711182,623.426025 489.905273,623.863708 485.841064,622.228821 
	C486.498016,616.004578 490.760925,610.847168 491.104279,604.481140 
	C489.302063,608.625305 486.481445,612.088806 484.096924,615.815308 
	C482.592712,618.166138 480.701294,618.086609 479.665283,615.505066 
	C477.324402,609.671936 476.523529,603.774597 480.082123,597.763977 
	C483.500702,599.074158 486.659576,600.284851 490.081024,601.596130 
	C488.570099,594.242065 486.506989,592.158813 483.197784,594.168213 
	C481.975861,593.627808 483.660156,591.801758 481.915527,591.393250 
	C477.376862,598.868835 475.671448,606.762878 478.489441,615.192871 
	C479.710663,618.846252 481.513367,622.310059 486.480896,623.532043 
M465.948608,423.410614 
	C471.316284,419.738098 477.778900,417.684875 482.810150,412.567139 
	C479.634949,410.289734 476.909760,408.432922 474.297943,406.428436 
	C472.465698,405.022217 470.848785,405.500488 469.336090,406.753540 
	C459.619049,414.802551 449.078827,421.915070 440.785492,431.584930 
	C439.488037,433.097717 437.339630,434.372894 438.357635,438.167297 
	C448.168243,434.571014 456.559143,428.799225 465.948608,423.410614 
M511.052887,449.671356 
	C513.913818,454.825806 522.990601,457.368713 527.838440,454.382416 
	C529.102173,453.603912 530.336975,452.317780 531.670715,452.194946 
	C536.891663,451.714081 538.089294,447.258698 540.015991,443.811981 
	C541.266785,441.574341 540.014221,439.579010 537.398987,438.311584 
	C525.985046,432.779938 526.017090,432.704651 516.289185,440.765564 
	C515.137146,441.720215 514.077271,442.788483 512.903381,443.713623 
	C511.163666,445.084656 510.402954,446.764893 511.052887,449.671356 
M561.482056,499.308350 
	C562.521423,499.132965 563.499268,498.865662 563.311218,497.489014 
	C562.758606,493.444885 556.573120,488.995270 550.676575,488.380249 
	C544.115601,487.695892 539.374756,489.881683 537.651855,494.368713 
	C536.518127,497.321503 537.314270,499.193024 540.556763,499.868042 
	C547.354614,501.283325 554.103455,501.071930 561.482056,499.308350 
M412.310425,619.721252 
	C414.509186,618.163208 417.749084,618.295288 418.940063,616.335815 
	C415.264008,600.936096 402.597321,606.427124 392.658478,603.936523 
	C396.451691,609.018372 400.007599,613.552734 403.299927,618.270996 
	C405.639954,621.624512 408.225891,622.449341 412.310425,619.721252 
M535.273621,433.136810 
	C538.187744,434.052216 540.929443,435.828156 544.292969,435.197723 
	C544.688782,432.692322 544.926331,430.410065 545.425171,428.186432 
	C546.635681,422.789886 544.653931,420.749908 539.058716,421.561462 
	C533.371216,422.386414 527.873657,424.794037 521.882874,423.335968 
	C520.456726,422.988861 518.711914,423.799561 517.045715,425.248047 
	C522.879333,428.279144 528.640076,430.725128 535.273621,433.136810 
M502.452759,597.377747 
	C505.998810,598.725891 508.642120,596.410156 511.518463,595.487732 
	C511.948914,592.167114 511.641449,589.320679 509.896667,586.579346 
	C511.274597,589.933167 509.154999,591.546387 507.002441,593.273010 
	C505.479980,594.494263 503.320221,594.883545 502.452759,597.377747 
M501.213409,618.782104 
	C503.669312,617.299011 504.870789,614.873230 506.267609,612.543640 
	C501.460938,612.671448 500.560120,607.642090 497.033783,606.160889 
	C497.705933,610.549194 500.860931,613.974304 501.213409,618.782104 
M677.737732,502.236084 
	C677.543579,501.332153 677.349487,500.428223 676.982178,498.717590 
	C675.839661,501.691345 674.317688,503.761749 674.531555,506.668701 
	C676.613464,507.625916 678.737610,508.075958 681.112122,507.882507 
	C680.690918,505.629761 679.582275,504.066803 677.737732,502.236084 
M498.666840,585.327026 
	C499.161133,583.456299 500.677521,581.699097 499.586517,579.116821 
	C495.004395,582.712585 496.963165,587.421021 496.468689,591.519836 
	C497.126129,589.686768 497.783600,587.853699 498.666840,585.327026 
M673.132874,518.589722 
	C674.333374,522.069641 675.401367,525.642273 678.957581,527.499817 
	C675.139587,523.813904 673.729126,518.997253 672.905090,513.065979 
	C672.069885,515.394592 672.543030,516.645386 673.132874,518.589722 
M371.181274,610.335632 
	C368.002197,608.769531 364.823090,607.203491 361.643982,605.637451 
	C361.530792,605.878479 361.417603,606.119446 361.304443,606.360474 
	C366.216553,608.796509 371.128662,611.232605 376.040771,613.668640 
	C376.158264,613.442566 376.275757,613.216553 376.393250,612.990479 
	C374.874420,612.197266 373.355591,611.403992 371.181274,610.335632 
z"/>
<path fill="#000000" opacity="1.000000" stroke="none" 
	d="
M423.872131,583.367798 
	C415.386597,584.328735 408.231354,582.471008 402.058563,577.100464 
	C399.634064,574.991089 396.857117,575.073303 394.128326,576.539551 
	C386.075073,580.866943 378.178619,580.204041 370.298889,576.018372 
	C365.744385,573.599060 361.099976,571.349365 356.500610,569.014221 
	C339.479767,560.372681 331.641907,545.594727 329.250519,527.460083 
	C328.608704,522.593140 330.034943,517.674072 331.509064,512.901123 
	C332.790436,517.743835 331.826233,522.814026 333.381592,527.572876 
	C333.948914,529.308716 334.362305,531.097900 334.988373,532.810730 
	C335.653198,534.629700 336.698578,536.340820 338.997101,535.493713 
	C341.172302,534.692017 340.416656,532.871765 340.005676,531.233765 
	C337.934418,522.978516 336.539337,514.659668 336.628510,506.079498 
	C336.697754,499.413177 340.422668,495.131439 345.613831,490.037811 
	C344.462158,495.157532 340.894348,497.630768 340.187958,501.652740 
	C337.702972,515.801758 342.003693,527.843933 352.023956,537.539368 
	C370.139832,555.067993 391.899811,562.536682 417.185333,560.101929 
	C434.420380,558.442261 450.787994,553.819702 466.802612,547.561340 
	C468.326294,546.965881 470.048706,546.015381 471.422302,547.608887 
	C472.830994,549.243042 471.496429,550.873474 470.660522,552.153381 
	C464.449280,561.663879 457.803314,570.912842 448.276642,577.381165 
	C441.160736,582.212585 432.600250,582.436157 423.872131,583.367798 
M426.827911,572.820923 
	C430.689697,575.957764 434.970917,576.104187 439.507721,574.654541 
	C441.292023,574.084351 442.354279,572.925659 442.475067,571.092163 
	C442.594818,569.274353 441.708649,567.289734 440.079041,567.188904 
	C434.606598,566.850403 429.076721,566.794067 423.826416,568.240723 
	C423.701080,570.733582 425.316437,571.334778 426.827911,572.820923 
z"/>
<path fill="#000000" opacity="1.000000" stroke="none" 
	d="
M603.323608,484.628723 
	C605.293335,485.274475 606.512329,482.887421 608.953064,484.436920 
	C605.743347,489.326630 599.862732,489.617035 595.368652,492.625916 
	C601.204224,496.559357 603.711975,490.027679 607.814026,488.783142 
	C606.814758,494.022430 597.182373,500.851379 592.196350,499.973389 
	C590.145752,499.612305 589.751831,498.005432 589.632935,496.252747 
	C589.288086,491.170441 597.784180,483.735016 603.323608,484.628723 
z"/>
<path fill="#000000" opacity="1.000000" stroke="none" 
	d="
M670.846252,450.066284 
	C662.828430,454.351715 662.828430,454.351715 661.496094,457.170868 
	C667.926392,457.500732 671.981384,452.860779 677.126648,450.738312 
	C675.447510,455.571838 667.245789,461.151428 662.894470,460.399261 
	C660.158203,459.926331 658.269104,458.309601 658.863159,455.205170 
	C659.681641,450.928070 670.069397,444.807587 674.398804,445.995361 
	C674.551392,448.319580 672.379883,448.710205 670.846252,450.066284 
z"/>
<path fill="#000000" opacity="1.000000" stroke="none" 
	d="
M677.415771,430.798950 
	C677.063599,429.524811 676.517151,428.576691 677.821411,427.131531 
	C684.577576,441.565308 684.318848,456.129364 681.122070,470.954529 
	C683.123047,457.386078 681.469299,444.154449 677.415771,430.798950 
z"/>
<path fill="#000000" opacity="1.000000" stroke="none" 
	d="
M488.121002,532.586670 
	C488.925446,532.204163 489.478943,531.994446 491.087555,531.384827 
	C488.086639,535.460999 484.706848,537.265747 480.865387,538.658447 
	C483.200287,536.692139 485.535187,534.725830 488.121002,532.586670 
z"/>
</svg>