<svg version="1.1" id="Layer_1" xmlns="http://www.w3.org/2000/svg" xmlns:xlink="http://www.w3.org/1999/xlink" x="0px" y="0px"
	 width="100%" viewBox="-100 -100 1224 776" enable-background="new 0 0 1024 576" xml:space="preserve">
<path fill="#ADADAD" opacity="1.000000" stroke="none" 
	d="
M685.488708,287.541626 
	C660.828186,302.969177 635.654480,316.474121 607.948853,324.744598 
	C598.425049,327.587585 588.770752,328.962982 578.865662,328.305359 
	C570.901855,327.776581 564.304260,323.773834 557.991089,319.391632 
	C541.327820,307.825195 529.499268,291.974854 519.471985,274.715057 
	C510.671997,259.567810 503.187012,243.841537 499.386658,226.517990 
	C497.882263,219.660446 500.198212,214.893646 505.037781,210.633911 
	C514.201111,202.568420 524.313171,195.824005 534.637390,189.385864 
	C558.683228,174.391022 583.478882,160.795776 609.072205,148.582703 
	C617.520325,144.551346 624.381958,144.817871 632.206055,150.060944 
	C664.300293,171.567917 694.106628,195.741760 720.482483,224.021240 
	C723.755005,227.529922 726.585205,231.526306 729.174194,235.581589 
	C734.294983,243.602829 733.879395,247.245789 727.628113,254.307800 
	C721.079041,261.706238 713.509399,267.975922 705.542969,273.746887 
	C699.071899,278.434570 692.380066,282.817413 685.488708,287.541626 
M680.861877,257.459839 
	C680.212158,254.712189 678.179199,255.054459 676.119568,255.262009 
	C668.539368,256.025848 661.078369,257.225372 653.573730,258.752380 
	C640.137512,261.486359 628.027222,267.005310 616.131409,273.326416 
	C611.359192,275.862213 607.325378,279.267426 605.071594,284.420410 
	C602.237427,290.900421 603.883972,293.878235 610.940247,295.303467 
	C621.478760,297.432098 630.362732,292.935272 639.471375,288.740601 
	C649.656006,284.050446 658.131775,276.716949 667.708679,271.078186 
	C672.885010,268.030457 679.207642,265.261261 680.861877,257.459839 
z"/>
<path fill="#000000" opacity="1.000000" stroke="none" 
	d="
M467.182312,215.819244 
	C481.242737,228.653656 487.551605,245.566757 494.267487,262.283173 
	C501.156830,279.431213 508.265625,296.491119 515.262756,313.595978 
	C515.627014,314.486359 515.844788,315.436676 516.292358,316.880524 
	C514.111145,316.701202 513.507690,315.258759 512.785645,314.161011 
	C501.889832,297.595642 495.151733,299.061462 479.610626,302.041016 
	C476.039978,302.725616 473.300323,302.510834 470.239746,300.723450 
	C427.959564,276.031555 385.621918,251.438019 343.326233,226.772568 
	C310.962067,207.898865 278.634583,188.962189 246.303329,170.032104 
	C244.770737,169.134781 242.913254,168.565186 242.162445,166.821579 
	C242.485580,165.107101 243.820755,164.602341 244.935471,163.959946 
	C263.219849,153.423309 282.422974,145.172958 303.117676,140.643082 
	C323.550232,136.170578 343.305084,137.622726 362.629944,146.219025 
	C401.352936,163.444153 436.340149,186.168884 467.182312,215.819244 
M370.382843,154.682343 
	C369.338318,154.576752 368.481689,153.286362 367.080048,154.244934 
	C368.466156,156.878342 371.200256,159.324173 368.290619,162.618027 
	C367.866730,163.097931 368.155762,164.732635 368.667480,165.423996 
	C371.004547,168.581650 371.633514,172.468948 373.384735,175.856033 
	C376.397095,181.682373 381.625793,184.081970 388.830353,183.764969 
	C395.301117,183.480255 394.931183,178.248779 396.410370,174.263748 
	C396.583710,173.796783 396.631195,173.276657 396.842560,172.831253 
	C398.304871,169.749725 397.057404,167.878281 394.277313,166.395660 
	C386.642731,162.324097 379.138977,157.997009 370.382843,154.682343 
M402.464935,188.917145 
	C401.503662,193.830688 400.542358,198.744247 399.386688,204.651443 
	C402.055145,201.577881 409.742920,177.810120 409.398682,174.966080 
	C409.284973,174.026581 408.517365,173.632568 407.166199,173.741196 
	C404.429382,177.999817 404.267975,183.297043 402.464935,188.917145 
z"/>
<path fill="#000000" opacity="1.000000" stroke="none" 
	d="
M866.879395,371.263428 
	C868.820312,384.093170 870.400513,396.607544 870.227051,409.303955 
	C870.079895,420.082031 865.499329,428.853973 858.760864,436.797760 
	C858.334900,437.299866 857.839844,437.857117 857.256958,438.095947 
	C841.752991,444.448608 830.328064,457.030945 815.804565,465.009430 
	C792.996216,477.539124 769.818420,489.147125 745.555969,498.589142 
	C743.302124,499.466248 739.639648,499.011932 739.345886,502.987549 
	C739.326599,503.247559 738.547058,503.503387 738.088257,503.671326 
	C717.762573,511.110535 696.758728,515.871826 675.144470,514.966492 
	C657.553101,514.229553 639.986389,511.437897 624.527527,501.708954 
	C621.926086,500.071747 619.669617,500.159332 617.127136,501.763367 
	C613.466614,504.072754 609.552917,505.991211 605.956787,508.390411 
	C593.111938,516.960144 580.678589,515.196960 568.841553,506.641724 
	C550.030396,493.046051 539.005554,474.320587 533.963745,451.877869 
	C533.501709,449.820862 533.840393,447.391785 530.438965,447.619476 
	C529.283020,447.696899 528.424194,446.463806 528.563965,445.095062 
	C529.391479,436.990417 527.673035,428.802429 529.635742,420.712891 
	C533.581482,404.449432 546.452026,396.852966 562.489868,401.467926 
	C576.568787,405.519165 587.087280,414.702728 596.010620,425.664978 
	C610.929260,443.992493 620.266235,464.614349 619.274414,488.874878 
	C619.109192,492.918152 620.420105,495.357239 624.311646,496.937958 
	C628.354980,498.580353 630.506775,496.922119 632.588196,493.837097 
	C633.594910,492.345062 635.046021,491.121979 636.414062,489.910553 
	C640.458191,486.329498 643.687866,486.040710 647.275513,490.045654 
	C652.002380,495.322357 657.068420,498.210815 664.375305,496.426849 
	C667.263550,495.721710 669.785278,497.576324 671.979858,499.512329 
	C674.098938,501.381714 676.198486,503.293030 678.468689,504.966003 
	C681.111145,506.913330 683.742432,508.033813 685.797729,503.980835 
	C686.701599,502.198273 688.748962,501.993713 690.590759,501.748962 
	C730.890930,496.393463 767.561401,481.131500 802.462952,460.936981 
	C816.733887,452.679596 831.243713,444.824768 844.619324,435.119446 
	C852.061523,429.719391 855.131714,421.778381 851.705444,413.309570 
	C848.814209,406.162994 851.610168,399.131866 850.458862,392.129578 
	C850.216248,390.653992 851.847107,389.576630 852.831848,388.454407 
	C857.228882,383.443207 861.714478,378.502960 864.070374,372.071930 
	C864.453125,371.027222 864.896240,369.042175 866.879395,371.263428 
M601.015503,479.608551 
	C598.519165,457.289917 588.423035,439.673309 568.040222,429.403961 
	C554.320312,422.491516 542.307312,430.014771 542.467224,445.412811 
	C542.711426,468.946899 553.097717,487.486908 573.470032,499.450378 
	C588.026428,507.998474 600.135620,500.832123 601.055054,484.042480 
	C601.118591,482.881317 601.073486,481.714172 601.015503,479.608551 
M607.246643,463.230560 
	C604.794006,453.347931 599.783081,444.897308 592.994263,437.427979 
	C599.645752,448.772644 605.769775,460.332581 609.691467,473.018799 
	C608.956055,470.010559 608.220642,467.002289 607.246643,463.230560 
z"/>
<path fill="#000000" opacity="1.000000" stroke="none" 
	d="
M305.758301,115.127998 
	C288.156860,115.096504 270.975098,116.572189 253.959122,113.347023 
	C253.632492,113.285118 253.289001,113.299530 252.968979,113.217461 
	C249.933823,112.439026 246.250305,112.232773 245.172287,108.720215 
	C244.187698,105.512070 246.650360,103.028549 248.648560,100.860237 
	C258.230804,90.462204 269.823853,82.643555 281.878357,75.471352 
	C301.713379,63.669922 322.428131,53.752262 344.899384,48.142323 
	C371.238251,41.566814 397.701141,42.762409 424.098083,48.165882 
	C425.229889,48.397564 426.333374,48.818611 427.407501,49.255993 
	C427.832886,49.429222 428.141998,49.888039 428.511566,50.223652 
	C428.366455,52.604706 426.302887,52.998253 424.814819,53.847466 
	C392.560303,72.254433 360.193268,90.467361 328.091370,109.136253 
	C321.130737,113.184212 313.848633,114.336227 305.758301,115.127998 
z"/>
<path fill="#000000" opacity="1.000000" stroke="none" 
	d="
M202.121231,259.232239 
	C195.565704,253.988052 191.386002,247.333893 186.925278,239.434341 
	C190.359192,240.478302 191.155197,242.655426 192.350723,244.211319 
	C193.904678,246.233688 195.697174,247.866318 197.746078,249.332062 
	C200.580032,251.359406 202.271408,250.939880 202.932419,247.340912 
	C203.262192,245.545425 203.782715,243.778702 204.308746,242.026520 
	C208.644333,227.584778 220.809845,220.621552 235.392365,224.471313 
	C250.069504,228.346069 260.994904,237.819000 270.246735,249.240204 
	C284.107422,266.350922 292.954468,285.601166 293.340851,308.069611 
	C293.380066,310.350464 294.217194,311.683472 296.342041,312.671356 
	C299.990448,314.367615 303.737732,315.401520 307.670441,316.312012 
	C318.797333,318.888000 328.914001,324.125854 338.501282,330.150818 
	C345.405670,334.489716 352.419586,338.562653 359.541718,342.523712 
	C374.507996,350.847351 389.325745,359.447327 404.051849,368.190948 
	C417.937103,376.435303 432.245911,383.903015 446.302521,391.825531 
	C465.159943,402.453888 483.825653,413.432465 502.374146,424.592346 
	C507.619537,427.748260 511.677429,432.509430 514.438232,438.626526 
	C511.684540,437.285156 508.845123,436.094025 506.189575,434.580444 
	C440.195374,396.965637 374.220642,359.316620 308.241821,321.674835 
	C307.807861,321.427277 307.281067,321.279541 306.939758,320.941620 
	C299.803101,313.876648 292.727997,314.852875 285.443359,320.820068 
	C283.280029,322.592163 280.529938,323.627502 278.158386,325.169128 
	C265.514801,333.388062 253.130356,331.383087 241.825714,323.056458 
	C222.177490,308.584259 210.554947,288.926544 206.512283,264.783600 
	C206.141708,262.570557 207.259842,258.491211 202.121231,259.232239 
M250.329239,251.156906 
	C246.478729,248.211121 242.425980,245.669403 237.720459,244.246826 
	C226.857132,240.962601 218.507721,245.881577 216.147842,257.019745 
	C213.664322,268.741364 217.070511,279.464722 222.208466,289.676025 
	C228.490646,302.161377 237.232498,312.468933 250.715820,317.676086 
	C261.262482,321.749115 270.344543,317.462402 273.210754,307.168213 
	C274.230682,303.505066 275.027191,299.734131 274.504333,295.849030 
	C272.124695,278.166870 264.554474,263.259918 250.329239,251.156906 
M280.104889,283.629181 
	C281.733643,289.156586 282.639801,294.838104 283.526764,300.523712 
	C284.256378,287.085632 277.757141,266.599426 271.333588,262.863190 
	C274.366516,269.798157 278.034851,275.953491 280.104889,283.629181 
z"/>
<path fill="#000000" opacity="1.000000" stroke="none" 
	d="
M804.728027,388.692383 
	C815.969788,381.223877 826.186157,373.015198 835.829468,364.029663 
	C838.765320,366.389954 838.100037,369.485718 838.713013,372.099274 
	C840.273926,378.753540 841.054016,385.508606 841.434143,392.350525 
	C841.820374,399.301208 839.252441,404.864594 834.071777,409.039307 
	C808.624268,429.545746 781.176331,446.694977 750.381653,458.103760 
	C749.447083,458.450012 748.434570,458.589111 747.505859,458.947632 
	C739.129211,462.181061 732.772217,459.714508 727.588257,452.539917 
	C723.205200,446.473755 719.046021,440.328918 715.141663,432.967377 
	C746.667725,420.963745 776.913452,407.635620 804.728027,388.692383 
z"/>
<path fill="#000000" opacity="1.000000" stroke="none" 
	d="
M182.165741,161.070953 
	C181.094681,162.429398 180.883865,164.285629 178.564377,164.032394 
	C176.917297,160.015366 178.608612,155.920532 178.966309,151.995193 
	C179.791336,142.941345 181.520248,133.973343 182.725067,124.949493 
	C183.646912,118.045029 188.151993,114.207375 193.896744,111.400848 
	C196.662796,110.049515 198.865570,110.812393 200.765701,113.383545 
	C204.479797,118.409241 205.311707,122.933472 201.495895,128.724884 
	C194.656723,139.104996 188.681290,150.054214 182.165741,161.070953 
z"/>
<path fill="#000000" opacity="1.000000" stroke="none" 
	d="
M854.765625,341.270691 
	C857.396484,344.472809 857.770386,347.796265 857.138611,351.400543 
	C856.783020,353.429688 855.564209,354.138000 853.693726,354.286499 
	C851.600952,354.452667 851.207458,353.157074 851.059021,351.501068 
	C850.369751,343.809509 844.149475,341.147736 838.621460,337.848969 
	C836.616211,336.652344 835.263184,338.758118 832.984436,338.859406 
	C830.373108,332.980133 825.340698,328.051880 827.396912,320.208954 
	C828.388000,316.428894 825.103333,313.141724 822.671814,310.172028 
	C821.153748,308.317993 819.213135,306.739136 819.218933,303.808350 
	C832.171021,315.102264 844.879456,326.577606 854.765625,341.270691 
z"/>
<path fill="#000000" opacity="1.000000" stroke="none" 
	d="
M555.278320,433.024170 
	C565.693115,430.095551 569.259583,432.759888 569.069580,443.229126 
	C569.016235,446.164062 570.665833,450.334534 566.948853,451.655426 
	C563.200867,452.987366 562.023743,448.567230 559.986145,446.427338 
	C557.825134,444.157837 555.893127,441.637878 554.098938,439.061676 
	C552.674194,437.015961 552.020752,434.779510 555.278320,433.024170 
z"/>
<path fill="#000000" opacity="1.000000" stroke="none" 
	d="
M556.397949,479.482849 
	C555.101135,476.626678 551.049011,474.099030 553.868286,471.463196 
	C556.781677,468.739258 561.321289,469.198029 565.229004,470.368591 
	C566.188538,470.656006 566.999695,471.849213 567.616516,472.796936 
	C569.874084,476.265717 569.764343,485.921143 567.276184,490.354340 
	C562.302856,488.240417 559.703186,483.745880 556.397949,479.482849 
z"/>
<path fill="#000000" opacity="1.000000" stroke="none" 
	d="
M587.084961,449.987915 
	C588.508057,452.847443 592.226746,455.430786 589.919067,458.087891 
	C587.550720,460.814850 583.198914,460.216248 579.577454,459.947693 
	C578.002747,459.830872 576.871277,458.596375 576.173218,457.265991 
	C573.463867,452.102509 574.464233,446.535217 575.164185,441.218292 
	C575.506348,438.619049 578.084839,439.652313 579.405334,441.055542 
	C582.012451,443.825989 584.401672,446.801483 587.084961,449.987915 
z"/>
<path fill="#000000" opacity="1.000000" stroke="none" 
	d="
M546.575623,455.177277 
	C545.469604,451.461853 546.006165,448.208435 546.701721,444.945892 
	C547.463135,441.374573 549.363831,441.322266 551.427246,443.686096 
	C554.796875,447.546234 558.131592,451.481018 561.029785,455.694702 
	C563.422424,459.173309 561.973816,461.657318 557.764221,462.226685 
	C549.757629,463.309601 547.855652,462.178833 546.575623,455.177277 
z"/>
<path fill="#000000" opacity="1.000000" stroke="none" 
	d="
M585.869263,467.692871 
	C595.421265,466.766479 597.293823,468.391296 597.264038,477.835052 
	C597.253601,481.141968 598.814087,485.936737 594.978027,487.187897 
	C591.510437,488.318848 590.190247,483.418243 588.015076,481.129120 
	C585.974304,478.981323 584.020020,476.616333 582.625854,474.025085 
	C581.068726,471.130920 580.647766,468.085205 585.869263,467.692871 
z"/>
<path fill="#000000" opacity="1.000000" stroke="none" 
	d="
M578.577698,497.049622 
	C575.160278,494.318542 573.103394,481.900146 575.251648,478.960205 
	C576.501526,477.249756 578.257690,477.334015 579.545593,478.674988 
	C583.444458,482.734497 587.207764,486.959747 590.075989,491.822388 
	C591.679504,494.540894 590.008484,496.256317 587.396301,496.968689 
	C584.646606,497.718536 581.808533,497.474365 578.577698,497.049622 
z"/>
<path fill="#000000" opacity="1.000000" stroke="none" 
	d="
M231.274094,260.685120 
	C230.412979,259.637085 229.710327,258.909760 229.180389,258.073029 
	C227.813110,255.914078 224.835983,253.979431 226.339081,251.159195 
	C227.903503,248.223862 231.381546,248.266296 234.359467,248.349335 
	C237.664658,248.441483 240.741562,249.381165 241.679306,253.117722 
	C242.744278,257.361328 242.601334,261.765015 241.882172,265.972107 
	C241.314865,269.290863 238.711670,269.015961 236.663986,267.027740 
	C234.768372,265.187134 233.215210,262.993896 231.274094,260.685120 
z"/>
<path fill="#000000" opacity="1.000000" stroke="none" 
	d="
M219.713104,272.927917 
	C218.920685,268.899261 218.749680,265.314270 219.587418,261.659576 
	C220.406448,258.086456 222.207413,257.317169 224.617752,260.011688 
	C227.927750,263.711975 231.094452,267.596863 233.855042,271.715942 
	C236.483963,275.638580 235.204056,277.816895 230.544937,278.330933 
	C222.078262,279.265045 221.810913,279.141327 219.713104,272.927917 
z"/>
<path fill="#000000" opacity="1.000000" stroke="none" 
	d="
M247.973511,295.665222 
	C249.865189,292.971893 251.695312,293.833496 253.102478,295.455597 
	C256.356812,299.207001 259.537903,303.037018 262.507935,307.014893 
	C264.710876,309.965363 263.929199,312.123413 260.272186,313.353424 
	C252.338943,316.021667 247.692856,312.840302 247.678604,304.520142 
	C247.673798,301.705444 247.780746,298.890503 247.973511,295.665222 
z"/>
<path fill="#000000" opacity="1.000000" stroke="none" 
	d="
M238.024963,305.498352 
	C233.364365,301.563477 230.029114,297.023956 227.089844,292.199097 
	C225.222427,289.133667 225.381668,287.122437 229.799011,286.560822 
	C239.835785,285.284790 242.192123,287.195496 242.206573,297.498657 
	C242.209366,299.486755 242.275452,301.487030 242.085419,303.459808 
	C241.867493,305.721893 240.684448,306.773468 238.024963,305.498352 
z"/>
<path fill="#000000" opacity="1.000000" stroke="none" 
	d="
M261.639587,298.346558 
	C259.589630,295.716248 257.576385,293.487030 255.968277,290.996277 
	C253.345810,286.934418 254.602951,284.478333 259.341797,283.916656 
	C268.153809,282.872192 270.149536,284.666016 270.312500,293.777893 
	C270.321350,294.274109 270.382324,294.776886 270.324738,295.265533 
	C269.974762,298.234161 271.573273,302.418610 267.946014,303.608398 
	C264.908203,304.604797 263.893311,300.390167 261.639587,298.346558 
z"/>
<path fill="#000000" opacity="1.000000" stroke="none" 
	d="
M258.705811,264.369629 
	C259.312592,265.191010 259.782318,265.687408 260.069672,266.273254 
	C261.381836,268.948395 265.296387,271.457062 262.960815,274.473877 
	C260.602020,277.520630 256.104584,276.693970 252.663910,276.041168 
	C248.952469,275.336945 247.754211,271.968292 247.699646,268.390106 
	C247.651733,265.248230 247.548920,262.093048 247.772186,258.965240 
	C247.993011,255.871521 249.727737,255.141052 252.022949,257.242828 
	C254.330597,259.355988 256.342987,261.791565 258.705811,264.369629 
z"/>
</svg>